<svg xmlns="http://www.w3.org/2000/svg" viewBox="0 0 512 512" fill="none">
  <!-- Rounded-square background -->
  <rect width="512" height="512" rx="96" fill="#0B1E3F"/>

  <!-- Ground shadow -->
  <ellipse cx="256" cy="414" rx="152" ry="20" fill="#000000" opacity="0.22"/>

  <!-- Cargo box -->
  <path d="M96 196 h200 a8 8 0 0 1 8 8 v108 a8 8 0 0 1 -8 8 H112 a16 16 0 0 1 -16 -16 V204 a8 8 0 0 1 8 -8 z" fill="#2563EB"/>

  <!-- Cab -->
  <path d="M308 256 h86 a36 36 0 0 1 36 36 v56 a8 8 0 0 1 -8 8 H308 a8 8 0 0 1 -8 -8 v-84 a8 8 0 0 1 8 -8 z" fill="#F97316"/>

  <!-- Cab window -->
  <path d="M318 266 h74 a18 18 0 0 1 18 18 v38 H318 v-56 z" fill="#FDBA74"/>

  <!-- White "N" / forward arrow on cargo box -->
  <path d="M128 248 l48 48 V248 h32 v80 h-32 l-48 -48 v48 h-32 v-80 h32 z" fill="#FFFFFF"/>

  <!-- Wheels -->
  <circle cx="158" cy="366" r="32" fill="#1F2937"/>
  <circle cx="158" cy="366" r="14" fill="#9CA3AF"/>
  <circle cx="362" cy="366" r="32" fill="#1F2937"/>
  <circle cx="362" cy="366" r="14" fill="#9CA3AF"/>

  <!-- Headlight -->
  <circle cx="432" cy="296" r="12" fill="#FEF3C7"/>
</svg>
